<svg width="32" height="33" viewBox="0 0 32 33" fill="none" xmlns="http://www.w3.org/2000/svg">
<path d="M8 24.5C7.45 24.5 6.97917 24.3042 6.5875 23.9125C6.19583 23.5208 6 23.05 6 22.5V10.5C6 9.95 6.19583 9.47917 6.5875 9.0875C6.97917 8.69583 7.45 8.5 8 8.5H24C24.55 8.5 25.0208 8.69583 25.4125 9.0875C25.8042 9.47917 26 9.95 26 10.5V22.5C26 23.05 25.8042 23.5208 25.4125 23.9125C25.0208 24.3042 24.55 24.5 24 24.5H8ZM16 17.5L8 12.5V22.5H24V12.5L16 17.5ZM16 15.5L24 10.5H8L16 15.5ZM8 12.5V10.5V22.5V12.5Z" fill="#F8F4FF"/>
</svg>
