<svg width="24" height="24" viewBox="0 0 24 24" fill="none" xmlns="http://www.w3.org/2000/svg">
<path id="Vector" d="M11.9033 9.23958V5.92708H8.59145V3.71875H11.9033V0.40625H14.1112V3.71875H17.4231V5.92708H14.1112V9.23958H11.9033ZM7.48749 23.5938C6.88032 23.5938 6.36054 23.3775 5.92816 22.9451C5.49578 22.5126 5.27959 21.9927 5.27959 21.3854C5.27959 20.7781 5.49578 20.2582 5.92816 19.8258C6.36054 19.3933 6.88032 19.1771 7.48749 19.1771C8.09467 19.1771 8.61445 19.3933 9.04683 19.8258C9.47921 20.2582 9.6954 20.7781 9.6954 21.3854C9.6954 21.9927 9.47921 22.5126 9.04683 22.9451C8.61445 23.3775 8.09467 23.5938 7.48749 23.5938ZM18.527 23.5938C17.9199 23.5938 17.4001 23.3775 16.9677 22.9451C16.5353 22.5126 16.3191 21.9927 16.3191 21.3854C16.3191 20.7781 16.5353 20.2582 16.9677 19.8258C17.4001 19.3933 17.9199 19.1771 18.527 19.1771C19.1342 19.1771 19.654 19.3933 20.0864 19.8258C20.5187 20.2582 20.7349 20.7781 20.7349 21.3854C20.7349 21.9927 20.5187 22.5126 20.0864 22.9451C19.654 23.3775 19.1342 23.5938 18.527 23.5938ZM7.48749 18.0729C6.65953 18.0729 6.02475 17.7095 5.58317 16.9826C5.14159 16.2556 5.13239 15.5333 5.55557 14.8156L7.04591 12.1104L3.07168 3.71875H0.86377V1.51042H4.47922L9.17102 11.4479H16.9263L21.2041 3.71875L23.136 4.76771L18.8582 12.4969C18.6558 12.8649 18.389 13.1502 18.0579 13.3526C17.7267 13.555 17.3495 13.6562 16.9263 13.6562H8.70184L7.48749 15.8646H20.7349V18.0729H7.48749Z" fill="white"/>
</svg>
