<svg width="32" height="33" viewBox="0 0 32 33" fill="none" xmlns="http://www.w3.org/2000/svg">
<path d="M13.25 26.5L12.85 23.3C12.6333 23.2167 12.4291 23.1167 12.2375 23C12.0458 22.8833 11.8583 22.7583 11.675 22.625L8.69995 23.875L5.94995 19.125L8.52495 17.175C8.50828 17.0583 8.49995 16.9458 8.49995 16.8375V16.1625C8.49995 16.0542 8.50828 15.9417 8.52495 15.825L5.94995 13.875L8.69995 9.125L11.675 10.375C11.8583 10.2417 12.05 10.1167 12.25 10C12.45 9.88333 12.65 9.78333 12.85 9.7L13.25 6.5H18.75L19.15 9.7C19.3666 9.78333 19.5708 9.88333 19.7625 10C19.9541 10.1167 20.1416 10.2417 20.325 10.375L23.3 9.125L26.05 13.875L23.475 15.825C23.4916 15.9417 23.5 16.0542 23.5 16.1625V16.8375C23.5 16.9458 23.4833 17.0583 23.45 17.175L26.025 19.125L23.275 23.875L20.325 22.625C20.1416 22.7583 19.95 22.8833 19.75 23C19.55 23.1167 19.35 23.2167 19.15 23.3L18.75 26.5H13.25ZM16.05 20C17.0166 20 17.8416 19.6583 18.525 18.975C19.2083 18.2917 19.55 17.4667 19.55 16.5C19.55 15.5333 19.2083 14.7083 18.525 14.025C17.8416 13.3417 17.0166 13 16.05 13C15.0666 13 14.2375 13.3417 13.5625 14.025C12.8875 14.7083 12.55 15.5333 12.55 16.5C12.55 17.4667 12.8875 18.2917 13.5625 18.975C14.2375 19.6583 15.0666 20 16.05 20ZM16.05 18C15.6333 18 15.2791 17.8542 14.9875 17.5625C14.6958 17.2708 14.55 16.9167 14.55 16.5C14.55 16.0833 14.6958 15.7292 14.9875 15.4375C15.2791 15.1458 15.6333 15 16.05 15C16.4666 15 16.8208 15.1458 17.1125 15.4375C17.4041 15.7292 17.55 16.0833 17.55 16.5C17.55 16.9167 17.4041 17.2708 17.1125 17.5625C16.8208 17.8542 16.4666 18 16.05 18ZM15 24.5H16.975L17.325 21.85C17.8416 21.7167 18.3208 21.5208 18.7625 21.2625C19.2041 21.0042 19.6083 20.6917 19.975 20.325L22.45 21.35L23.425 19.65L21.275 18.025C21.3583 17.7917 21.4166 17.5458 21.45 17.2875C21.4833 17.0292 21.5 16.7667 21.5 16.5C21.5 16.2333 21.4833 15.9708 21.45 15.7125C21.4166 15.4542 21.3583 15.2083 21.275 14.975L23.425 13.35L22.45 11.65L19.975 12.7C19.6083 12.3167 19.2041 11.9958 18.7625 11.7375C18.3208 11.4792 17.8416 11.2833 17.325 11.15L17 8.5H15.025L14.675 11.15C14.1583 11.2833 13.6791 11.4792 13.2375 11.7375C12.7958 11.9958 12.3916 12.3083 12.025 12.675L9.54995 11.65L8.57495 13.35L10.725 14.95C10.6416 15.2 10.5833 15.45 10.55 15.7C10.5166 15.95 10.5 16.2167 10.5 16.5C10.5 16.7667 10.5166 17.025 10.55 17.275C10.5833 17.525 10.6416 17.775 10.725 18.025L8.57495 19.65L9.54995 21.35L12.025 20.3C12.3916 20.6833 12.7958 21.0042 13.2375 21.2625C13.6791 21.5208 14.1583 21.7167 14.675 21.85L15 24.5Z" fill="#F8F4FF"/>
</svg>
