<svg width="32" height="33" viewBox="0 0 32 33" fill="none" xmlns="http://www.w3.org/2000/svg">
<path d="M7.75 26.7625C7.2 26.7625 6.72917 26.5667 6.3375 26.175C5.94583 25.7834 5.75 25.3125 5.75 24.7625V10.7625C5.75 10.2125 5.94583 9.74172 6.3375 9.35005C6.72917 8.95838 7.2 8.76255 7.75 8.76255H16.675L14.675 10.7625H7.75V24.7625H21.75V17.8125L23.75 15.8125V24.7625C23.75 25.3125 23.5542 25.7834 23.1625 26.175C22.7708 26.5667 22.3 26.7625 21.75 26.7625H7.75ZM18.925 9.33755L20.35 10.7375L13.75 17.3375V18.7625H15.15L21.775 12.1375L23.2 13.5375L16 20.7625H11.75V16.5125L18.925 9.33755ZM23.2 13.5375L18.925 9.33755L21.425 6.83755C21.825 6.43755 22.3042 6.23755 22.8625 6.23755C23.4208 6.23755 23.8917 6.43755 24.275 6.83755L25.675 8.26255C26.0583 8.64588 26.25 9.11255 26.25 9.66255C26.25 10.2125 26.0583 10.6792 25.675 11.0625L23.2 13.5375Z" fill="#F8F4FF"/>
</svg>
