<svg width="19" height="16" viewBox="0 0 19 16" fill="none" xmlns="http://www.w3.org/2000/svg">
<path d="M18.1638 2.186C17.9568 1.326 17.3466 0.648 16.5726 0.418C15.1686 2.08616e-07 9.54004 0 9.54004 0C9.54004 0 3.91144 2.08616e-07 2.50744 0.418C1.73344 0.648 1.12324 1.326 0.916239 2.186C0.540039 3.746 0.540039 8 0.540039 8C0.540039 8 0.540039 12.254 0.916239 13.814C1.12324 14.674 1.73344 15.352 2.50744 15.582C3.91144 16 9.54004 16 9.54004 16C9.54004 16 15.1686 16 16.5726 15.582C17.3475 15.352 17.9568 14.674 18.1638 13.814C18.54 12.254 18.54 8 18.54 8C18.54 8 18.54 3.746 18.1638 2.186ZM7.74004 10.598V5.402C7.74004 5.017 8.11534 4.777 8.41504 4.969L12.465 7.567C12.7647 7.759 12.7647 8.241 12.465 8.433L8.41504 11.031C8.11534 11.224 7.74004 10.983 7.74004 10.598Z" fill="#F8F4FF"/>
</svg>
