<svg width="17" height="16" viewBox="0 0 17 16" fill="none" xmlns="http://www.w3.org/2000/svg">
<path d="M11.6358 0H4.52464C2.07042 0 0.0802002 1.99022 0.0802002 4.44444V11.5556C0.0802002 14.0098 2.07042 16 4.52464 16H11.6358C14.09 16 16.0802 14.0098 16.0802 11.5556V4.44444C16.0802 1.99022 14.09 0 11.6358 0ZM8.0802 12.4444C5.62598 12.4444 3.63576 10.4542 3.63576 8C3.63576 5.54578 5.62598 3.55556 8.0802 3.55556C10.5344 3.55556 12.5246 5.54578 12.5246 8C12.5246 10.4542 10.5344 12.4444 8.0802 12.4444ZM13.4135 3.55556C12.9229 3.55556 12.5246 3.15733 12.5246 2.66667C12.5246 2.176 12.9229 1.77778 13.4135 1.77778C13.9042 1.77778 14.3024 2.176 14.3024 2.66667C14.3024 3.15733 13.9042 3.55556 13.4135 3.55556Z" fill="#F8F4FF"/>
<path d="M8.08024 10.6666C9.553 10.6666 10.7469 9.47274 10.7469 7.99998C10.7469 6.52722 9.553 5.33331 8.08024 5.33331C6.60748 5.33331 5.41357 6.52722 5.41357 7.99998C5.41357 9.47274 6.60748 10.6666 8.08024 10.6666Z" fill="#F8F4FF"/>
</svg>
