<svg width="16" height="16" viewBox="0 0 16 16" fill="none" xmlns="http://www.w3.org/2000/svg">
<path d="M12.4444 0H3.55556C1.592 0 0 1.592 0 3.55556V12.4444C0 14.408 1.592 16 3.55556 16H8.552V9.81244H6.46933V7.39022H8.552V5.608C8.552 3.54222 9.81511 2.416 11.6587 2.416C12.28 2.41422 12.9004 2.44622 13.5182 2.50933V4.66933H12.2489C11.2444 4.66933 11.0489 5.144 11.0489 5.84444V7.38667H13.4489L13.1369 9.80889H11.0347V16H12.4444C14.408 16 16 14.408 16 12.4444V3.55556C16 1.592 14.408 0 12.4444 0Z" fill="white"/>
</svg>
