<svg width="155" height="50" viewBox="0 0 155 50" fill="none" xmlns="http://www.w3.org/2000/svg">
<path opacity="0.8" d="M17.5 50C12.6667 50 8.54167 48.2917 5.125 44.875C1.70833 41.4583 0 37.3333 0 32.5V17.5C0 12.6667 1.70833 8.54167 5.125 5.125C8.54167 1.70833 12.6667 0 17.5 0C22.3333 0 26.4583 1.70833 29.875 5.125C33.2917 8.54167 35 12.6667 35 17.5V32.5C35 37.3333 33.2917 41.4583 29.875 44.875C26.4583 48.2917 22.3333 50 17.5 50ZM20 17.5H30C30 14.5 29.0521 11.8542 27.1562 9.5625C25.2604 7.27083 22.875 5.83333 20 5.25V17.5ZM5 17.5H15V5.25C12.125 5.83333 9.73958 7.27083 7.84375 9.5625C5.94792 11.8542 5 14.5 5 17.5ZM17.5 45C20.9583 45 23.9062 43.7812 26.3438 41.3438C28.7812 38.9062 30 35.9583 30 32.5V22.5H5V32.5C5 35.9583 6.21875 38.9062 8.65625 41.3438C11.0938 43.7812 14.0417 45 17.5 45Z" fill="#F8F4FF"/>
<path d="M10.7 18C9.1 17.9167 7.75 17.3 6.65 16.15C5.55 15 5 13.6167 5 12C5 10.3333 5.58333 8.91667 6.75 7.75C7.91667 6.58333 9.33333 6 11 6C12.6167 6 14 6.55 15.15 7.65C16.3 8.75 16.9167 10.1 17 11.7L14.9 11.075C14.6833 10.175 14.2167 9.4375 13.5 8.8625C12.7833 8.2875 11.95 8 11 8C9.9 8 8.95833 8.39167 8.175 9.175C7.39167 9.95833 7 10.9 7 12C7 12.95 7.2875 13.7833 7.8625 14.5C8.4375 15.2167 9.175 15.6833 10.075 15.9L10.7 18ZM19.525 22.5L15.25 18.225L14 22L11 12L21 15L17.225 16.25L21.5 20.525L19.525 22.5Z" fill="#7952D2"/>
<path d="M57.3828 27.125C57.3828 26.8594 57.3411 26.625 57.2578 26.4219C57.1797 26.2135 57.0391 26.026 56.8359 25.8594C56.638 25.6927 56.362 25.5339 56.0078 25.3828C55.6589 25.2318 55.2161 25.0781 54.6797 24.9219C54.1172 24.7552 53.6094 24.5703 53.1562 24.3672C52.7031 24.1589 52.3151 23.9219 51.9922 23.6562C51.6693 23.3906 51.4219 23.0859 51.25 22.7422C51.0781 22.3984 50.9922 22.0052 50.9922 21.5625C50.9922 21.1198 51.0833 20.7109 51.2656 20.3359C51.4479 19.9609 51.7083 19.6354 52.0469 19.3594C52.3906 19.0781 52.7995 18.8594 53.2734 18.7031C53.7474 18.5469 54.276 18.4688 54.8594 18.4688C55.7135 18.4688 56.4375 18.6328 57.0312 18.9609C57.6302 19.2839 58.0859 19.7083 58.3984 20.2344C58.7109 20.7552 58.8672 21.3125 58.8672 21.9062H57.3672C57.3672 21.4792 57.276 21.1016 57.0938 20.7734C56.9115 20.4401 56.6354 20.1797 56.2656 19.9922C55.8958 19.7995 55.4271 19.7031 54.8594 19.7031C54.3229 19.7031 53.8802 19.7839 53.5312 19.9453C53.1823 20.1068 52.9219 20.3255 52.75 20.6016C52.5833 20.8776 52.5 21.1927 52.5 21.5469C52.5 21.7865 52.5495 22.0052 52.6484 22.2031C52.7526 22.3958 52.9115 22.5755 53.125 22.7422C53.3438 22.9089 53.6198 23.0625 53.9531 23.2031C54.2917 23.3438 54.6953 23.4792 55.1641 23.6094C55.8099 23.7917 56.3672 23.9948 56.8359 24.2188C57.3047 24.4427 57.6901 24.6953 57.9922 24.9766C58.2995 25.2526 58.526 25.5677 58.6719 25.9219C58.8229 26.2708 58.8984 26.6667 58.8984 27.1094C58.8984 27.5729 58.8047 27.9922 58.6172 28.3672C58.4297 28.7422 58.1615 29.0625 57.8125 29.3281C57.4635 29.5938 57.0443 29.7995 56.5547 29.9453C56.0703 30.0859 55.5286 30.1562 54.9297 30.1562C54.4036 30.1562 53.8854 30.0833 53.375 29.9375C52.8698 29.7917 52.4089 29.5729 51.9922 29.2812C51.5807 28.9896 51.25 28.6302 51 28.2031C50.7552 27.7708 50.6328 27.2708 50.6328 26.7031H52.1328C52.1328 27.0938 52.2083 27.4297 52.3594 27.7109C52.5104 27.987 52.7161 28.2161 52.9766 28.3984C53.2422 28.5807 53.5417 28.7161 53.875 28.8047C54.2135 28.888 54.5651 28.9297 54.9297 28.9297C55.4557 28.9297 55.901 28.8568 56.2656 28.7109C56.6302 28.5651 56.9062 28.3568 57.0938 28.0859C57.2865 27.8151 57.3828 27.4948 57.3828 27.125ZM68.0469 28.7734V30H62.0234V28.7734H68.0469ZM62.3281 18.625V30H60.8203V18.625H62.3281ZM67.25 23.5156V24.7422H62.0234V23.5156H67.25ZM67.9688 18.625V19.8594H62.0234V18.625H67.9688ZM76.8125 28.7734V30H71.125V28.7734H76.8125ZM71.4219 18.625V30H69.9141V18.625H71.4219ZM85.7656 28.7734V30H79.7422V28.7734H85.7656ZM80.0469 18.625V30H78.5391V18.625H80.0469ZM84.9688 23.5156V24.7422H79.7422V23.5156H84.9688ZM85.6875 18.625V19.8594H79.7422V18.625H85.6875ZM94.5 26.3828H96C95.9219 27.1016 95.7161 27.7448 95.3828 28.3125C95.0495 28.8802 94.5781 29.3307 93.9688 29.6641C93.3594 29.9922 92.599 30.1562 91.6875 30.1562C91.0208 30.1562 90.4141 30.0312 89.8672 29.7812C89.3255 29.5312 88.8594 29.1771 88.4688 28.7188C88.0781 28.2552 87.776 27.7005 87.5625 27.0547C87.3542 26.4036 87.25 25.6797 87.25 24.8828V23.75C87.25 22.9531 87.3542 22.2318 87.5625 21.5859C87.776 20.9349 88.0807 20.3776 88.4766 19.9141C88.8776 19.4505 89.3594 19.0938 89.9219 18.8438C90.4844 18.5938 91.1172 18.4688 91.8203 18.4688C92.6797 18.4688 93.4062 18.6302 94 18.9531C94.5938 19.276 95.0547 19.724 95.3828 20.2969C95.7161 20.8646 95.9219 21.5234 96 22.2734H94.5C94.4271 21.7422 94.2917 21.2865 94.0938 20.9062C93.8958 20.5208 93.6146 20.224 93.25 20.0156C92.8854 19.8073 92.4089 19.7031 91.8203 19.7031C91.3151 19.7031 90.8698 19.7995 90.4844 19.9922C90.1042 20.1849 89.7839 20.4583 89.5234 20.8125C89.2682 21.1667 89.0755 21.5911 88.9453 22.0859C88.8151 22.5807 88.75 23.1302 88.75 23.7344V24.8828C88.75 25.4401 88.8073 25.9635 88.9219 26.4531C89.0417 26.9427 89.2214 27.3724 89.4609 27.7422C89.7005 28.112 90.0052 28.4036 90.375 28.6172C90.7448 28.8255 91.1823 28.9297 91.6875 28.9297C92.3281 28.9297 92.8385 28.8281 93.2188 28.625C93.599 28.4219 93.8854 28.1302 94.0781 27.75C94.276 27.3698 94.4167 26.9141 94.5 26.3828ZM104.922 26.3828H106.422C106.344 27.1016 106.138 27.7448 105.805 28.3125C105.471 28.8802 105 29.3307 104.391 29.6641C103.781 29.9922 103.021 30.1562 102.109 30.1562C101.443 30.1562 100.836 30.0312 100.289 29.7812C99.7474 29.5312 99.2812 29.1771 98.8906 28.7188C98.5 28.2552 98.1979 27.7005 97.9844 27.0547C97.776 26.4036 97.6719 25.6797 97.6719 24.8828V23.75C97.6719 22.9531 97.776 22.2318 97.9844 21.5859C98.1979 20.9349 98.5026 20.3776 98.8984 19.9141C99.2995 19.4505 99.7812 19.0938 100.344 18.8438C100.906 18.5938 101.539 18.4688 102.242 18.4688C103.102 18.4688 103.828 18.6302 104.422 18.9531C105.016 19.276 105.477 19.724 105.805 20.2969C106.138 20.8646 106.344 21.5234 106.422 22.2734H104.922C104.849 21.7422 104.714 21.2865 104.516 20.9062C104.318 20.5208 104.036 20.224 103.672 20.0156C103.307 19.8073 102.831 19.7031 102.242 19.7031C101.737 19.7031 101.292 19.7995 100.906 19.9922C100.526 20.1849 100.206 20.4583 99.9453 20.8125C99.6901 21.1667 99.4974 21.5911 99.3672 22.0859C99.237 22.5807 99.1719 23.1302 99.1719 23.7344V24.8828C99.1719 25.4401 99.2292 25.9635 99.3438 26.4531C99.4635 26.9427 99.6432 27.3724 99.8828 27.7422C100.122 28.112 100.427 28.4036 100.797 28.6172C101.167 28.8255 101.604 28.9297 102.109 28.9297C102.75 28.9297 103.26 28.8281 103.641 28.625C104.021 28.4219 104.307 28.1302 104.5 27.75C104.698 27.3698 104.839 26.9141 104.922 26.3828ZM110.094 18.625V30H108.586V18.625H110.094ZM121.594 23.9531V24.6719C121.594 25.526 121.487 26.2917 121.273 26.9688C121.06 27.6458 120.753 28.2214 120.352 28.6953C119.951 29.1693 119.469 29.5312 118.906 29.7812C118.349 30.0312 117.724 30.1562 117.031 30.1562C116.359 30.1562 115.742 30.0312 115.18 29.7812C114.622 29.5312 114.138 29.1693 113.727 28.6953C113.32 28.2214 113.005 27.6458 112.781 26.9688C112.557 26.2917 112.445 25.526 112.445 24.6719V23.9531C112.445 23.099 112.555 22.3359 112.773 21.6641C112.997 20.987 113.312 20.4115 113.719 19.9375C114.125 19.4583 114.607 19.0938 115.164 18.8438C115.727 18.5938 116.344 18.4688 117.016 18.4688C117.708 18.4688 118.333 18.5938 118.891 18.8438C119.453 19.0938 119.935 19.4583 120.336 19.9375C120.742 20.4115 121.052 20.987 121.266 21.6641C121.484 22.3359 121.594 23.099 121.594 23.9531ZM120.102 24.6719V23.9375C120.102 23.2604 120.031 22.6615 119.891 22.1406C119.755 21.6198 119.555 21.1823 119.289 20.8281C119.023 20.474 118.698 20.2057 118.312 20.0234C117.932 19.8411 117.5 19.75 117.016 19.75C116.547 19.75 116.122 19.8411 115.742 20.0234C115.367 20.2057 115.044 20.474 114.773 20.8281C114.508 21.1823 114.302 21.6198 114.156 22.1406C114.01 22.6615 113.938 23.2604 113.938 23.9375V24.6719C113.938 25.3542 114.01 25.9583 114.156 26.4844C114.302 27.0052 114.51 27.4453 114.781 27.8047C115.057 28.1589 115.383 28.4271 115.758 28.6094C116.138 28.7917 116.562 28.8828 117.031 28.8828C117.521 28.8828 117.956 28.7917 118.336 28.6094C118.716 28.4271 119.036 28.1589 119.297 27.8047C119.562 27.4453 119.763 27.0052 119.898 26.4844C120.034 25.9583 120.102 25.3542 120.102 24.6719ZM132.602 18.625V30H131.086L125.359 21.2266V30H123.852V18.625H125.359L131.109 27.4219V18.625H132.602ZM139.625 19.6328L135.859 30H134.32L138.656 18.625H139.648L139.625 19.6328ZM142.781 30L139.008 19.6328L138.984 18.625H139.977L144.328 30H142.781ZM142.586 25.7891V27.0234H136.195V25.7891H142.586ZM145.852 18.625H149.617C150.471 18.625 151.193 18.7552 151.781 19.0156C152.375 19.276 152.826 19.6615 153.133 20.1719C153.445 20.6771 153.602 21.2995 153.602 22.0391C153.602 22.5599 153.495 23.0365 153.281 23.4688C153.073 23.8958 152.771 24.2604 152.375 24.5625C151.984 24.8594 151.516 25.0807 150.969 25.2266L150.547 25.3906H147.008L146.992 24.1641H149.664C150.206 24.1641 150.656 24.0703 151.016 23.8828C151.375 23.6901 151.646 23.4323 151.828 23.1094C152.01 22.7865 152.102 22.4297 152.102 22.0391C152.102 21.6016 152.016 21.2188 151.844 20.8906C151.672 20.5625 151.401 20.3099 151.031 20.1328C150.667 19.9505 150.195 19.8594 149.617 19.8594H147.359V30H145.852V18.625ZM152.5 30L149.734 24.8438L151.305 24.8359L154.109 29.9062V30H152.5Z" fill="white"/>
</svg>
