<svg width="33" height="32" viewBox="0 0 33 32" fill="none" xmlns="http://www.w3.org/2000/svg">
<path d="M16.5 28L14.76 26.2997C12.74 24.3161 11.07 22.6049 9.75 21.1662C8.43 19.7275 7.38 18.436 6.6 17.2916C5.82 16.1471 5.275 15.0954 4.965 14.1362C4.655 13.1771 4.5 12.1962 4.5 11.1935C4.5 9.14441 5.13 7.43324 6.39 6.05995C7.65 4.68665 9.22 4 11.1 4C12.14 4 13.13 4.23978 14.07 4.71935C15.01 5.19891 15.82 5.87466 16.5 6.74659C17.18 5.87466 17.99 5.19891 18.93 4.71935C19.87 4.23978 20.86 4 21.9 4C23.78 4 25.35 4.68665 26.61 6.05995C27.87 7.43324 28.5 9.14441 28.5 11.1935C28.5 12.1962 28.345 13.1771 28.035 14.1362C27.725 15.0954 27.18 16.1471 26.4 17.2916C25.62 18.436 24.57 19.7275 23.25 21.1662C21.93 22.6049 20.26 24.3161 18.24 26.2997L16.5 28ZM16.5 24.4687C18.42 22.594 20 20.9864 21.24 19.6458C22.48 18.3052 23.46 17.139 24.18 16.1471C24.9 15.1553 25.4 14.2725 25.68 13.4986C25.96 12.7248 26.1 11.9564 26.1 11.1935C26.1 9.88556 25.7 8.79564 24.9 7.92371C24.1 7.05177 23.1 6.6158 21.9 6.6158C20.96 6.6158 20.09 6.90463 19.29 7.48229C18.49 8.05995 17.94 8.79564 17.64 9.68937H15.36C15.06 8.79564 14.51 8.05995 13.71 7.48229C12.91 6.90463 12.04 6.6158 11.1 6.6158C9.9 6.6158 8.9 7.05177 8.1 7.92371C7.3 8.79564 6.9 9.88556 6.9 11.1935C6.9 11.9564 7.04 12.7248 7.32 13.4986C7.6 14.2725 8.1 15.1553 8.82 16.1471C9.54 17.139 10.52 18.3052 11.76 19.6458C13 20.9864 14.58 22.594 16.5 24.4687Z" fill="#F80000"/>
</svg>
