<svg width="16" height="17" viewBox="0 0 16 17" fill="none" xmlns="http://www.w3.org/2000/svg">
<g id="Google 2">
<path id="Vector" d="M14.537 7.19434H14V7.16668H8.00004V9.83334H11.7677C11.218 11.3857 9.74104 12.5 8.00004 12.5C5.79104 12.5 4.00004 10.709 4.00004 8.50001C4.00004 6.29101 5.79104 4.50001 8.00004 4.50001C9.01971 4.50001 9.94737 4.88468 10.6537 5.51301L12.5394 3.62734C11.3487 2.51768 9.75604 1.83334 8.00004 1.83334C4.31837 1.83334 1.33337 4.81834 1.33337 8.50001C1.33337 12.1817 4.31837 15.1667 8.00004 15.1667C11.6817 15.1667 14.6667 12.1817 14.6667 8.50001C14.6667 8.05301 14.6207 7.61668 14.537 7.19434Z" fill="#FBC02D"/>
<path id="Vector_2" d="M2.10205 5.39701L4.29238 7.00334C4.88505 5.53601 6.32038 4.50001 8.00005 4.50001C9.01972 4.50001 9.94738 4.88468 10.6537 5.51301L12.5394 3.62734C11.3487 2.51768 9.75605 1.83334 8.00005 1.83334C5.43938 1.83334 3.21872 3.27901 2.10205 5.39701Z" fill="#E53935"/>
<path id="Vector_3" d="M7.99994 15.1667C9.72194 15.1667 11.2866 14.5077 12.4696 13.436L10.4063 11.69C9.73694 12.197 8.90494 12.5 7.99994 12.5C6.26594 12.5 4.79361 11.3943 4.23894 9.85132L2.06494 11.5263C3.16827 13.6853 5.40894 15.1667 7.99994 15.1667Z" fill="#4CAF50"/>
<path id="Vector_4" d="M14.537 7.19432L14.5317 7.16666H14H8V9.83332H11.7677C11.5037 10.579 11.024 11.222 10.4053 11.6903L10.4063 11.6897L12.4697 13.4357C12.3237 13.5683 14.6667 11.8333 14.6667 8.49999C14.6667 8.05299 14.6207 7.61666 14.537 7.19432Z" fill="#1565C0"/>
</g>
</svg>
