<svg width="22" height="15" viewBox="0 0 22 15" fill="none" xmlns="http://www.w3.org/2000/svg">
<path id="controller" d="M2.2 15C1.595 15 1.07708 14.7552 0.64625 14.2656C0.215417 13.776 0 13.1875 0 12.5V2.5C0 1.8125 0.215417 1.22396 0.64625 0.734375C1.07708 0.244792 1.595 0 2.2 0H19.8C20.405 0 20.9229 0.244792 21.3538 0.734375C21.7846 1.22396 22 1.8125 22 2.5V12.5C22 13.1875 21.7846 13.776 21.3538 14.2656C20.9229 14.7552 20.405 15 19.8 15H2.2ZM2.2 12.5H19.8V2.5H2.2V12.5ZM5.5 11.25H7.7V8.75H9.9V6.25H7.7V3.75H5.5V6.25H3.3V8.75H5.5V11.25ZM13.75 11.25C14.2083 11.25 14.5979 11.0677 14.9187 10.7031C15.2396 10.3385 15.4 9.89583 15.4 9.375C15.4 8.85417 15.2396 8.41146 14.9187 8.04688C14.5979 7.68229 14.2083 7.5 13.75 7.5C13.2917 7.5 12.9021 7.68229 12.5813 8.04688C12.2604 8.41146 12.1 8.85417 12.1 9.375C12.1 9.89583 12.2604 10.3385 12.5813 10.7031C12.9021 11.0677 13.2917 11.25 13.75 11.25ZM17.05 7.5C17.5083 7.5 17.8979 7.31771 18.2188 6.95312C18.5396 6.58854 18.7 6.14583 18.7 5.625C18.7 5.10417 18.5396 4.66146 18.2188 4.29688C17.8979 3.93229 17.5083 3.75 17.05 3.75C16.5917 3.75 16.2021 3.93229 15.8813 4.29688C15.5604 4.66146 15.4 5.10417 15.4 5.625C15.4 6.14583 15.5604 6.58854 15.8813 6.95312C16.2021 7.31771 16.5917 7.5 17.05 7.5Z" fill="#F72585"/>
</svg>
