<svg width="160" height="50" viewBox="0 0 160 50" fill="none" xmlns="http://www.w3.org/2000/svg">
<path opacity="0.8" d="M36.5357 50C31.7023 50 27.5773 48.2917 24.1607 44.875C20.744 41.4583 19.0357 37.3333 19.0357 32.5V17.5C19.0357 12.6667 20.744 8.54167 24.1607 5.125C27.5773 1.70833 31.7023 0 36.5357 0C41.369 0 45.494 1.70833 48.9107 5.125C52.3273 8.54167 54.0357 12.6667 54.0357 17.5V32.5C54.0357 37.3333 52.3273 41.4583 48.9107 44.875C45.494 48.2917 41.369 50 36.5357 50ZM39.0357 17.5H49.0357C49.0357 14.5 48.0878 11.8542 46.1919 9.5625C44.2961 7.27083 41.9107 5.83333 39.0357 5.25V17.5ZM24.0357 17.5H34.0357V5.25C31.1607 5.83333 28.7753 7.27083 26.8794 9.5625C24.9836 11.8542 24.0357 14.5 24.0357 17.5ZM36.5357 45C39.994 45 42.9419 43.7812 45.3794 41.3438C47.8169 38.9062 49.0357 35.9583 49.0357 32.5V22.5H24.0357V32.5C24.0357 35.9583 25.2544 38.9062 27.6919 41.3438C30.1294 43.7812 33.0773 45 36.5357 45Z" fill="#F8F4FF"/>
<path d="M5.72205e-06 25L15 33.6603V16.3397L5.72205e-06 25ZM14.0357 23.5H13.5V26.5H14.0357V23.5Z" fill="#7952D2"/>
<path d="M73.0713 25L58.0713 16.3397V33.6603L73.0713 25ZM59.0357 26.5H59.5713V23.5H59.0357V26.5Z" fill="#7952D2"/>
<path d="M89.7969 18.625H91.2578L94.9844 27.8984L98.7031 18.625H100.172L95.5469 30H94.4062L89.7969 18.625ZM89.3203 18.625H90.6094L90.8203 25.5625V30H89.3203V18.625ZM99.3516 18.625H100.641V30H99.1406V25.5625L99.3516 18.625ZM112.047 23.9531V24.6719C112.047 25.526 111.94 26.2917 111.727 26.9688C111.513 27.6458 111.206 28.2214 110.805 28.6953C110.404 29.1693 109.922 29.5312 109.359 29.7812C108.802 30.0312 108.177 30.1562 107.484 30.1562C106.812 30.1562 106.195 30.0312 105.633 29.7812C105.076 29.5312 104.591 29.1693 104.18 28.6953C103.773 28.2214 103.458 27.6458 103.234 26.9688C103.01 26.2917 102.898 25.526 102.898 24.6719V23.9531C102.898 23.099 103.008 22.3359 103.227 21.6641C103.451 20.987 103.766 20.4115 104.172 19.9375C104.578 19.4583 105.06 19.0938 105.617 18.8438C106.18 18.5938 106.797 18.4688 107.469 18.4688C108.161 18.4688 108.786 18.5938 109.344 18.8438C109.906 19.0938 110.388 19.4583 110.789 19.9375C111.195 20.4115 111.505 20.987 111.719 21.6641C111.938 22.3359 112.047 23.099 112.047 23.9531ZM110.555 24.6719V23.9375C110.555 23.2604 110.484 22.6615 110.344 22.1406C110.208 21.6198 110.008 21.1823 109.742 20.8281C109.477 20.474 109.151 20.2057 108.766 20.0234C108.385 19.8411 107.953 19.75 107.469 19.75C107 19.75 106.576 19.8411 106.195 20.0234C105.82 20.2057 105.497 20.474 105.227 20.8281C104.961 21.1823 104.755 21.6198 104.609 22.1406C104.464 22.6615 104.391 23.2604 104.391 23.9375V24.6719C104.391 25.3542 104.464 25.9583 104.609 26.4844C104.755 27.0052 104.964 27.4453 105.234 27.8047C105.51 28.1589 105.836 28.4271 106.211 28.6094C106.591 28.7917 107.016 28.8828 107.484 28.8828C107.974 28.8828 108.409 28.7917 108.789 28.6094C109.169 28.4271 109.49 28.1589 109.75 27.8047C110.016 27.4453 110.216 27.0052 110.352 26.4844C110.487 25.9583 110.555 25.3542 110.555 24.6719ZM117.805 28.2734L121.156 18.625H122.789L118.578 30H117.414L117.805 28.2734ZM114.672 18.625L117.992 28.2734L118.406 30H117.242L113.039 18.625H114.672ZM131.547 28.7734V30H125.523V28.7734H131.547ZM125.828 18.625V30H124.32V18.625H125.828ZM130.75 23.5156V24.7422H125.523V23.5156H130.75ZM131.469 18.625V19.8594H125.523V18.625H131.469ZM133.414 18.625H137.18C138.034 18.625 138.755 18.7552 139.344 19.0156C139.938 19.276 140.388 19.6615 140.695 20.1719C141.008 20.6771 141.164 21.2995 141.164 22.0391C141.164 22.5599 141.057 23.0365 140.844 23.4688C140.635 23.8958 140.333 24.2604 139.938 24.5625C139.547 24.8594 139.078 25.0807 138.531 25.2266L138.109 25.3906H134.57L134.555 24.1641H137.227C137.768 24.1641 138.219 24.0703 138.578 23.8828C138.938 23.6901 139.208 23.4323 139.391 23.1094C139.573 22.7865 139.664 22.4297 139.664 22.0391C139.664 21.6016 139.578 21.2188 139.406 20.8906C139.234 20.5625 138.964 20.3099 138.594 20.1328C138.229 19.9505 137.758 19.8594 137.18 19.8594H134.922V30H133.414V18.625ZM140.062 30L137.297 24.8438L138.867 24.8359L141.672 29.9062V30H140.062ZM146.852 18.625V30H145.367V18.625H146.852ZM150.508 18.625V19.8594H141.719V18.625H150.508ZM159.422 28.7734V30H153.398V28.7734H159.422ZM153.703 18.625V30H152.195V18.625H153.703ZM158.625 23.5156V24.7422H153.398V23.5156H158.625ZM159.344 18.625V19.8594H153.398V18.625H159.344Z" fill="white"/>
</svg>
