<svg width="116" height="29" viewBox="0 0 116 29" fill="none" xmlns="http://www.w3.org/2000/svg">
<path d="M9.1925 19.3855L12.5 17.2855L15.8075 19.4132L14.9412 15.4342L17.855 12.7816L14.0225 12.4224L12.5 8.66447L10.9775 12.3947L7.145 12.7539L10.0588 15.4342L9.1925 19.3855ZM6.01625 24L7.7225 16.2355L2 11.0132L9.56 10.3224L12.5 3L15.44 10.3224L23 11.0132L17.2775 16.2355L18.9837 24L12.5 19.8829L6.01625 24Z" fill="#F8B200"/>
<path d="M9.1925 19.3855L12.5 17.2855L15.8075 19.4132L14.9412 15.4342L17.855 12.7816L14.0225 12.4224L12.5 8.66447L10.9775 12.3947L7.145 12.7539L10.0588 15.4342L9.1925 19.3855Z" fill="#F8B200"/>
<path d="M29.7225 16.2355L28.0162 24L34.5 19.8829L40.9837 24L39.2775 16.2355L45 11.0132L37.44 10.3224L34.5 3L31.56 10.3224L24 11.0132L29.7225 16.2355Z" fill="#F8B200"/>
<path d="M53.1925 19.3855L56.5 17.2855L59.8075 19.4132L58.9412 15.4342L61.855 12.7816L58.0225 12.4224L56.5 8.66447L54.9775 12.3947L51.145 12.7539L54.0588 15.4342L53.1925 19.3855ZM50.0162 24L51.7225 16.2355L46 11.0132L53.56 10.3224L56.5 3L59.44 10.3224L67 11.0132L61.2775 16.2355L62.9837 24L56.5 19.8829L50.0162 24Z" fill="#F8B200"/>
<path d="M53.1925 19.3855L56.5 17.2855L59.8075 19.4132L58.9412 15.4342L61.855 12.7816L58.0225 12.4224L56.5 8.66447L54.9775 12.3947L51.145 12.7539L54.0588 15.4342L53.1925 19.3855Z" fill="#F8B200"/>
<path d="M73.7225 16.2355L72.0162 24L78.5 19.8829L84.9837 24L83.2775 16.2355L89 11.0132L81.44 10.3224L78.5 3L75.56 10.3224L68 11.0132L73.7225 16.2355Z" fill="#F8B200"/>
<path d="M100 17.2855L103.15 19.4132L102.325 15.4342L105.1 12.7816L101.45 12.4224L100 8.66447V17.2855ZM93.825 24L95.45 16.2355L90 11.0132L97.2 10.3224L100 3L102.8 10.3224L110 11.0132L104.55 16.2355L106.175 24L100 19.8829L93.825 24Z" fill="#F8B200"/>
</svg>
