<svg width="21" height="21" viewBox="0 0 21 21" fill="none" xmlns="http://www.w3.org/2000/svg">
<path id="editar" opacity="0.6" d="M2.29809 18.6986H3.90675L13.8173 8.77397L12.2086 7.16301L2.29809 17.0877V18.6986ZM18.7294 7.10548L13.846 2.2726L15.4547 0.661644C15.8951 0.220548 16.4361 0 17.0777 0C17.7192 0 18.2602 0.220548 18.7007 0.661644L20.3094 2.2726C20.7498 2.7137 20.9797 3.24589 20.9988 3.86918C21.018 4.49247 20.8073 5.02466 20.3668 5.46575L18.7294 7.10548ZM17.0633 8.80274L4.88344 21H0V16.1096L12.1799 3.91233L17.0633 8.80274ZM13.0129 7.96849L12.2086 7.16301L13.8173 8.77397L13.0129 7.96849Z" fill="#F8F4FF"/>
</svg>
