<svg width="17" height="17" viewBox="0 0 17 17" fill="none" xmlns="http://www.w3.org/2000/svg">
<g id="facebook color 1">
<g id="Group">
<path id="Vector" d="M8.50004 1.83334C4.81804 1.83334 1.83337 4.81801 1.83337 8.50001C1.83337 12.182 4.81804 15.1667 8.50004 15.1667C12.182 15.1667 15.1667 12.182 15.1667 8.50001C15.1667 4.81801 12.182 1.83334 8.50004 1.83334Z" fill="url(#paint0_linear_3003_1693)"/>
<path id="Vector_2" d="M9.40239 10.267H11.1277L11.3987 8.51434H9.40239V7.55635C9.40239 6.82835 9.64039 6.18268 10.3214 6.18268H11.4157V4.65335C11.2234 4.62735 10.8167 4.57068 10.0484 4.57068C8.44373 4.57068 7.50306 5.41801 7.50306 7.34868V8.51468H5.85339V10.2673H7.50273V15.0847C7.82939 15.1333 8.16039 15.1667 8.50006 15.1667C8.80706 15.1667 9.10673 15.1387 9.40239 15.0987V10.267Z" fill="white"/>
</g>
</g>
<defs>
<linearGradient id="paint0_linear_3003_1693" x1="3.83101" y1="3.83098" x2="14.0384" y2="14.0384" gradientUnits="userSpaceOnUse">
<stop stop-color="#2AA4F4"/>
<stop offset="1" stop-color="#007AD9"/>
</linearGradient>
</defs>
</svg>
