<svg width="31" height="29" viewBox="0 0 31 29" fill="none" xmlns="http://www.w3.org/2000/svg">
<path d="M18.9444 29V25.6029C21.5278 24.8848 23.6088 23.5038 25.1875 21.46C26.7662 19.4162 27.5556 17.0962 27.5556 14.5C27.5556 11.9038 26.7662 9.58381 25.1875 7.54C23.6088 5.49619 21.5278 4.11524 18.9444 3.39714V0C22.5037 0.773333 25.4028 2.50643 27.6417 5.19929C29.8806 7.89214 31 10.9924 31 14.5C31 18.0076 29.8806 21.1079 27.6417 23.8007C25.4028 26.4936 22.5037 28.2267 18.9444 29ZM0 19.5129V9.57H6.88889L15.5 1.28429V27.7986L6.88889 19.5129H0ZM18.9444 21.17V7.83C20.2935 8.43762 21.3484 9.34905 22.109 10.5643C22.8697 11.7795 23.25 13.1052 23.25 14.5414C23.25 15.95 22.8697 17.255 22.109 18.4564C21.3484 19.6579 20.2935 20.5624 18.9444 21.17ZM12.0556 9.32143L8.35278 12.8843H3.44444V16.1986H8.35278L12.0556 19.7614V9.32143Z" fill="#7952D2"/>
</svg>
