<svg width="34" height="22" viewBox="0 0 34 22" fill="none" xmlns="http://www.w3.org/2000/svg">
<path d="M3.4 22C2.465 22 1.66458 21.641 0.99875 20.9229C0.332917 20.2049 0 19.3417 0 18.3333V3.66667C0 2.65833 0.332917 1.79514 0.99875 1.07708C1.66458 0.359028 2.465 0 3.4 0H30.6C31.535 0 32.3354 0.359028 33.0013 1.07708C33.6671 1.79514 34 2.65833 34 3.66667V18.3333C34 19.3417 33.6671 20.2049 33.0013 20.9229C32.3354 21.641 31.535 22 30.6 22H3.4ZM3.4 18.3333H30.6V3.66667H3.4V18.3333ZM8.5 16.5H11.9V12.8333H15.3V9.16667H11.9V5.5H8.5V9.16667H5.1V12.8333H8.5V16.5ZM21.25 16.5C21.9583 16.5 22.5604 16.2326 23.0562 15.6979C23.5521 15.1632 23.8 14.5139 23.8 13.75C23.8 12.9861 23.5521 12.3368 23.0562 11.8021C22.5604 11.2674 21.9583 11 21.25 11C20.5417 11 19.9396 11.2674 19.4438 11.8021C18.9479 12.3368 18.7 12.9861 18.7 13.75C18.7 14.5139 18.9479 15.1632 19.4438 15.6979C19.9396 16.2326 20.5417 16.5 21.25 16.5ZM26.35 11C27.0583 11 27.6604 10.7326 28.1562 10.1979C28.6521 9.66319 28.9 9.01389 28.9 8.25C28.9 7.48611 28.6521 6.83681 28.1562 6.30208C27.6604 5.76736 27.0583 5.5 26.35 5.5C25.6417 5.5 25.0396 5.76736 24.5438 6.30208C24.0479 6.83681 23.8 7.48611 23.8 8.25C23.8 9.01389 24.0479 9.66319 24.5438 10.1979C25.0396 10.7326 25.6417 11 26.35 11Z" fill="#7952D2"/>
</svg>
