<svg width="32" height="33" viewBox="0 0 32 33" fill="none" xmlns="http://www.w3.org/2000/svg">
<path d="M16 24.5C13.9556 24.5 12.1741 23.8222 10.6556 22.4667C9.13704 21.1111 8.26667 19.4185 8.04444 17.3889H9.86667C10.0741 18.9296 10.7593 20.2037 11.9222 21.2111C13.0852 22.2185 14.4444 22.7222 16 22.7222C17.7333 22.7222 19.2037 22.1185 20.4111 20.9111C21.6185 19.7037 22.2222 18.2333 22.2222 16.5C22.2222 14.7667 21.6185 13.2963 20.4111 12.0889C19.2037 10.8815 17.7333 10.2778 16 10.2778C14.9778 10.2778 14.0222 10.5148 13.1333 10.9889C12.2444 11.463 11.4963 12.1148 10.8889 12.9444H13.3333V14.7222H8V9.38889H9.77778V11.4778C10.5333 10.5296 11.4556 9.7963 12.5444 9.27778C13.6333 8.75926 14.7852 8.5 16 8.5C17.1111 8.5 18.1519 8.71111 19.1222 9.13333C20.0926 9.55556 20.937 10.1259 21.6556 10.8444C22.3741 11.563 22.9444 12.4074 23.3667 13.3778C23.7889 14.3481 24 15.3889 24 16.5C24 17.6111 23.7889 18.6519 23.3667 19.6222C22.9444 20.5926 22.3741 21.437 21.6556 22.1556C20.937 22.8741 20.0926 23.4444 19.1222 23.8667C18.1519 24.2889 17.1111 24.5 16 24.5ZM18.4889 20.2333L15.1111 16.8556V12.0556H16.8889V16.1444L19.7333 18.9889L18.4889 20.2333Z" fill="#F8F4FF"/>
</svg>
