<svg width="32" height="33" viewBox="0 0 32 33" fill="none" xmlns="http://www.w3.org/2000/svg">
<path d="M10.0882 17.7632C10.0882 18.493 10.2606 19.1842 10.6055 19.8368C10.9504 20.4895 11.443 21.0614 12.0835 21.5526C12.067 21.4825 12.0588 21.4193 12.0588 21.3632V21.1737C12.0588 20.7246 12.1573 20.3035 12.3544 19.9105C12.5515 19.5175 12.8388 19.1596 13.2165 18.8368L16 16.5L18.7835 18.8368C19.1612 19.1596 19.4486 19.5175 19.6456 19.9105C19.8427 20.3035 19.9412 20.7246 19.9412 21.1737V21.3632C19.9412 21.4193 19.933 21.4825 19.9166 21.5526C20.557 21.0614 21.0497 20.4895 21.3945 19.8368C21.7394 19.1842 21.9118 18.493 21.9118 17.7632C21.9118 17.0614 21.7599 16.3982 21.4561 15.7737C21.1523 15.1491 20.713 14.5912 20.1383 14.1C19.8099 14.2825 19.465 14.4193 19.1037 14.5105C18.7424 14.6018 18.373 14.6474 17.9953 14.6474C16.9771 14.6474 16.0944 14.3596 15.3473 13.7842C14.6001 13.2088 14.169 12.5 14.0541 11.6579C13.4136 12.1211 12.8471 12.6018 12.3544 13.1C11.8618 13.5982 11.4471 14.1035 11.1105 14.6158C10.7738 15.1281 10.5193 15.6509 10.3469 16.1842C10.1744 16.7175 10.0882 17.2439 10.0882 17.7632ZM16 18.8579L14.596 20.0368C14.4153 20.1912 14.2757 20.3667 14.1772 20.5632C14.0787 20.7596 14.0294 20.9632 14.0294 21.1737C14.0294 21.6228 14.2224 22.0088 14.6083 22.3316C14.9942 22.6544 15.4581 22.8158 16 22.8158C16.5419 22.8158 17.0059 22.6544 17.3918 22.3316C17.7777 22.0088 17.9706 21.6228 17.9706 21.1737C17.9706 20.9491 17.9214 20.7421 17.8228 20.5526C17.7243 20.3632 17.5847 20.1912 17.4041 20.0368L16 18.8579ZM16 8.5V11.2789C16 11.7561 16.193 12.1561 16.5789 12.4789C16.9648 12.8018 17.4369 12.9632 17.9953 12.9632C18.2908 12.9632 18.5659 12.9105 18.8204 12.8053C19.075 12.7 19.3008 12.5421 19.4978 12.3316L19.9412 11.8684C21.1564 12.4579 22.1171 13.2789 22.8232 14.3316C23.5294 15.3842 23.8824 16.5281 23.8824 17.7632C23.8824 19.6439 23.1188 21.2368 21.5916 22.5421C20.0644 23.8474 18.2005 24.5 16 24.5C13.7995 24.5 11.9357 23.8474 10.4084 22.5421C8.88122 21.2368 8.11761 19.6439 8.11761 17.7632C8.11761 15.9526 8.82785 14.2333 10.2483 12.6053C11.6688 10.9772 13.586 9.60877 16 8.5Z" fill="#F8F4FF"/>
</svg>
