<svg width="34" height="34" viewBox="0 0 34 34" fill="none" xmlns="http://www.w3.org/2000/svg">
<path d="M10.6667 33.6666C9.75008 33.6666 8.96536 33.3402 8.31258 32.6874C7.6598 32.0346 7.33342 31.2499 7.33342 30.3333C7.33342 29.4166 7.6598 28.6319 8.31258 27.9791C8.96536 27.3263 9.75008 26.9999 10.6667 26.9999C11.5834 26.9999 12.3681 27.3263 13.0209 27.9791C13.6737 28.6319 14.0001 29.4166 14.0001 30.3333C14.0001 31.2499 13.6737 32.0346 13.0209 32.6874C12.3681 33.3402 11.5834 33.6666 10.6667 33.6666ZM27.3334 33.6666C26.4167 33.6666 25.632 33.3402 24.9792 32.6874C24.3265 32.0346 24.0001 31.2499 24.0001 30.3333C24.0001 29.4166 24.3265 28.6319 24.9792 27.9791C25.632 27.3263 26.4167 26.9999 27.3334 26.9999C28.2501 26.9999 29.0348 27.3263 29.6876 27.9791C30.3404 28.6319 30.6667 29.4166 30.6667 30.3333C30.6667 31.2499 30.3404 32.0346 29.6876 32.6874C29.0348 33.3402 28.2501 33.6666 27.3334 33.6666ZM9.25008 6.99992L13.2501 15.3333H24.9167L29.5001 6.99992H9.25008ZM7.66675 3.66658H32.2501C32.889 3.66658 33.3751 3.95131 33.7084 4.52075C34.0417 5.0902 34.0556 5.66658 33.7501 6.24992L27.8334 16.9166C27.5279 17.4721 27.1181 17.9027 26.6042 18.2083C26.0904 18.5138 25.5279 18.6666 24.9167 18.6666H12.5001L10.6667 21.9999H30.6667V25.3333H10.6667C9.41675 25.3333 8.4723 24.7846 7.83342 23.6874C7.19453 22.5902 7.16675 21.4999 7.75008 20.4166L10.0001 16.3333L4.00008 3.66658H0.666748V0.333252H6.08342L7.66675 3.66658Z" fill="#F8F4FF"/>
</svg>
